<?xml version="1.0" standalone="no"?>
<!DOCTYPE svg PUBLIC "-//W3C//DTD SVG 20010904//EN"
 "http://www.w3.org/TR/2001/REC-SVG-20010904/DTD/svg10.dtd">
<svg version="1.0" xmlns="http://www.w3.org/2000/svg"
 width="688.000000pt" height="472.000000pt" viewBox="0 0 688.000000 472.000000"
 preserveAspectRatio="xMidYMid meet">

<g transform="translate(0.000000,472.000000) scale(0.100000,-0.100000)"
fill="#000000" stroke="none">
<path d="M0 2360 l0 -2360 3440 0 3440 0 0 2360 0 2360 -3440 0 -3440 0 0
-2360z m3840 2244 c601 -68 1162 -329 1589 -739 448 -431 750 -1074 751 -1602
0 -57 -4 -103 -9 -103 -4 0 -20 9 -33 20 -49 38 -184 113 -246 136 l-62 24
-539 0 c-324 0 -560 -4 -592 -10 -89 -17 -174 -63 -243 -132 -62 -63 -97 -119
-229 -369 -74 -139 -91 -169 -97 -169 -3 0 -23 47 -44 105 l-38 105 62 122
c107 211 150 279 231 359 87 88 182 140 296 164 89 19 1222 22 1284 3 22 -6
42 -9 45 -5 10 10 -55 227 -112 372 -134 336 -295 577 -560 835 -286 278 -585
460 -961 584 -902 299 -1890 97 -2543 -518 -183 -173 -309 -326 -435 -531
-113 -181 -234 -469 -279 -662 l-14 -63 566 0 c633 0 630 0 777 -70 93 -45
194 -125 253 -203 23 -29 76 -121 118 -203 43 -82 90 -169 107 -194 31 -46
116 -140 128 -140 6 0 75 180 80 210 2 8 -16 44 -39 79 -52 79 -77 145 -92
244 -38 250 127 497 375 562 219 57 459 -47 564 -244 45 -85 61 -149 61 -249
0 -126 -42 -240 -132 -354 l-28 -36 106 -289 c96 -262 164 -452 164 -460 0 -2
-138 -3 -306 -3 l-307 0 -136 -86 c-182 -116 -182 -116 -101 -114 36 1 262 1
503 1 l437 -1 11 -27 c22 -57 152 -412 189 -518 21 -60 59 -167 84 -237 l46
-128 -273 0 -272 0 -113 340 -114 340 -249 0 c-137 0 -252 0 -256 1 -4 0 -57
-147 -118 -328 -61 -180 -114 -334 -118 -340 -6 -10 -71 -13 -268 -13 -142 0
-259 4 -259 8 0 5 104 305 231 668 127 362 240 685 251 717 l20 59 -53 46
c-122 104 -179 181 -269 362 -101 202 -189 304 -315 364 -97 46 -106 46 -1095
46 l-940 0 0 95 0 95 291 2 292 3 34 129 c86 330 270 693 488 966 145 182 369
392 556 522 542 378 1191 532 1899 452z m15 -433 c392 -59 748 -208 1059 -444
107 -81 290 -260 381 -372 93 -115 190 -255 177 -255 -6 0 -33 12 -62 26 -112
56 -297 104 -480 123 -47 5 -174 9 -283 10 -109 1 -221 6 -249 11 -53 10 -133
44 -308 131 -294 144 -462 189 -750 196 -498 13 -905 -66 -1139 -222 -82 -54
-111 -87 -111 -126 0 -69 111 -87 435 -68 357 21 1414 18 1710 -4 528 -41 828
-86 1046 -158 218 -72 314 -158 362 -326 l15 -51 -92 -7 c-102 -8 -410 9 -468
25 -85 24 -59 88 43 109 30 6 103 15 163 21 60 5 111 12 114 14 15 15 -261 99
-412 125 -321 56 -624 77 -1281 87 -547 8 -1247 -14 -1754 -56 -64 -5 -128
-10 -143 -10 -31 0 -47 -26 -104 -165 l-32 -80 -151 -3 c-92 -1 -151 1 -151 7
0 47 132 331 221 473 237 382 645 714 1073 873 143 53 340 101 511 124 187 26
460 22 660 -8z m-2185 -2076 c390 -59 685 -327 806 -730 22 -74 27 -116 32
-238 5 -170 -6 -257 -49 -384 -100 -296 -340 -533 -634 -626 -132 -42 -209
-47 -661 -47 l-424 0 0 680 0 680 240 0 240 0 0 -425 0 -425 188 0 c136 0 204
4 247 15 140 37 249 128 314 265 l36 75 0 145 c0 129 -3 151 -24 203 -53 134
-167 254 -281 299 -51 20 -79 22 -415 30 -428 9 -485 18 -649 102 -137 69
-226 156 -285 277 -22 47 -41 93 -41 102 0 16 47 17 633 17 501 0 652 -3 727
-15z m3983 0 c312 -47 559 -216 715 -488 87 -152 132 -335 132 -537 0 -286
-87 -512 -269 -703 -129 -135 -271 -219 -451 -268 -82 -22 -103 -23 -557 -27
l-473 -3 0 1020 0 1021 403 0 c302 0 426 -4 500 -15z m-1199 -558 c24 -82 68
-135 137 -166 32 -14 59 -28 59 -32 0 -3 -23 -16 -51 -29 -63 -30 -111 -82
-134 -146 -9 -27 -20 -58 -24 -69 -6 -15 -13 -5 -31 49 -28 84 -65 128 -141
164 l-59 28 60 28 c74 34 113 80 141 163 11 35 22 63 24 63 2 0 11 -24 19 -53z"/>
<path d="M3373 2666 c-199 -65 -297 -269 -223 -460 32 -83 115 -166 195 -196
131 -48 291 -5 376 103 53 66 84 169 75 245 -14 114 -93 230 -196 286 -61 33
-163 43 -227 22z m164 -80 c58 -27 133 -92 162 -140 11 -17 22 -52 26 -78 6
-40 5 -48 -8 -48 -21 0 -72 33 -165 105 -85 67 -122 114 -122 156 0 25 4 29
28 29 15 0 50 -11 79 -24z"/>
<path d="M3314 4000 c-292 -31 -568 -111 -784 -227 -47 -25 -87 -47 -89 -49
-12 -11 12 -13 59 -4 317 60 894 73 1145 25 193 -37 414 -119 676 -249 l85
-43 280 -7 c173 -5 275 -4 269 2 -42 39 -217 171 -295 222 -188 123 -474 244
-675 285 -214 43 -504 63 -671 45z"/>
<path d="M5237 1603 c-3 -6 -1 -891 3 -1011 0 -11 39 -13 208 -10 l207 3 69
33 c179 84 272 226 283 432 14 250 -122 464 -342 540 -50 17 -84 20 -241 20
-101 0 -185 -3 -187 -7z"/>
</g>
</svg>
